<svg width="79" height="82" viewBox="0 0 79 82" fill="none" xmlns="http://www.w3.org/2000/svg">
<path d="M70.1734 73.7679C64.7014 66.4592 59.5501 58.9223 54.4626 51.3397C54.2178 51.3894 53.9676 51.4283 53.6988 51.4444C47.765 51.7692 41.8073 52.0282 35.8801 52.5355C34.4536 56.3643 32.9778 60.1757 32.4149 64.2488C31.5978 70.1458 22.751 67.6281 23.5601 61.7875C24.2747 56.6166 26.4611 51.8645 28.1512 46.9727C28.8831 44.847 30.4041 43.8015 32.5785 43.5747C36.0039 43.2137 39.4439 42.9681 42.8892 42.7641C41.2164 40.5122 39.5836 38.2347 38.02 35.9103C37.167 37.757 36.302 39.5969 35.4436 41.4301C34.5095 43.4311 31.0655 43.9907 29.6735 42.183C25.7984 37.141 21.9206 32.0976 18.0428 27.0569C15.1777 23.3314 20.3384 18.0464 23.2381 21.8175C25.9914 25.4021 28.7487 28.9854 31.5046 32.5686C32.1673 31.1474 32.8114 29.7155 33.4182 28.2714C30.7474 21.0365 41.6356 15.1248 45.866 22.4523C49.6347 28.9854 54.1579 34.9897 58.7197 40.9725C59.0165 41.3603 59.2414 41.779 59.4064 42.2139C65.4706 51.2941 71.5587 60.3556 78.102 69.0949C81.6697 73.8645 73.6906 78.4704 70.1734 73.7679ZM29.4047 21.0298C33.8161 21.0298 37.3932 17.4224 37.3932 12.9735C37.3932 8.52464 33.8161 4.91724 29.4047 4.91724C24.9933 4.91724 21.4163 8.52464 21.4163 12.9735C21.4163 17.4224 24.9933 21.0298 29.4047 21.0298ZM20.526 17.5579L10.8249 22.8281L11.7151 24.4949L21.4163 19.2261L20.526 17.5579ZM7.45941 20.7198C7.04688 20.1145 7.35694 19.0959 7.71624 17.9149C8.11014 16.6198 8.55727 15.1516 8.11014 13.819C7.42747 11.7777 5.79465 10.5954 4.21905 9.45065C2.06058 7.88583 0.0218785 6.40824 0.817664 2.83036L0.836294 2.7391L0.214837 2.59953L0.194875 2.68945C-0.692731 6.68068 1.61345 8.3542 3.84511 9.9727C5.3422 11.0584 6.89118 12.179 7.50466 14.0243C7.88924 15.1624 7.47139 16.5259 7.10676 17.7284C6.71552 19.0113 6.34558 20.2205 6.93111 21.0835C7.33698 21.6766 8.14075 22.0068 9.38899 22.0967L9.47815 22.1021L9.5234 21.4592L9.43424 21.4525C8.39093 21.38 7.74552 21.1398 7.45941 20.7198ZM11.3146 9.48286C10.5986 8.20523 9.75361 8.18645 9.25059 8.17437C9.04699 8.17168 8.91125 8.16363 8.87 8.11666C8.79681 8.02406 8.70499 7.66305 8.93255 6.26599C9.02969 5.68488 9.38899 5.03265 9.73631 4.40189C10.2793 3.41281 10.8448 2.38883 10.5108 1.46148C10.3032 0.873668 9.76825 0.41469 8.88198 0.067102L8.7143 0L8.48409 0.590498L8.65043 0.6576C9.35838 0.938086 9.77358 1.27091 9.91863 1.67621C10.1515 2.33247 9.68442 3.186 9.18539 4.09456C8.81278 4.77095 8.42686 5.4715 8.31109 6.16399C8.08619 7.54227 8.10615 8.18242 8.38561 8.52195C8.61317 8.79707 8.94319 8.80378 9.23329 8.81184C9.70039 8.82123 10.226 8.83331 10.761 9.79152C11.3439 10.8531 10.6599 13.407 9.99714 15.8817C9.53937 17.5888 9.1082 19.2006 9.05764 20.4165L9.04832 20.599L9.67909 20.6272L9.68442 20.4446C9.73499 19.2999 10.1568 17.7203 10.6053 16.0401C11.3026 13.4486 12.0172 10.7699 11.3146 9.48286ZM17.2045 74.1289H20.6604V82H37.4863V74.1289H40.9396V68.9003H17.2045V74.1289Z" fill="#010002"/>
</svg>
